<svg xmlns="http://www.w3.org/2000/svg" viewBox="0 0 1200 900" width="1200" height="900" role="img" aria-label="ODOMETER CLOSE-UP placeholder">
  <defs>
    <linearGradient id="bg" x1="0" y1="0" x2="1" y2="1">
      <stop offset="0%" stop-color="#F7FAFC"/><stop offset="100%" stop-color="#E7EEF5"/>
    </linearGradient>
  </defs>
  <rect width="1200" height="900" fill="url(#bg)"/>
  <rect x="24" y="24" width="1152" height="852" fill="none" stroke="#D8E0E8" stroke-width="2" stroke-dasharray="10 8"/>
  <g transform="translate(600 470) scale(8.74) translate(-110 -55)" opacity="0.16">
    <path d="M34 62 L60 62 C66 48 82 42 108 42 C134 42 150 48 158 62 L186 62 C190 62 192 65 192 69 L192 75 L26 75 L26 69 C26 65 30 62 34 62 Z" fill="#0E2A47"/>
    <circle cx="66" cy="78" r="16" fill="#0E2A47"/>
    <circle cx="164" cy="78" r="16" fill="#0E2A47"/>
  </g>
  <text x="600" y="300" text-anchor="middle" font-family="Inter, -apple-system, Segoe UI, Roboto, sans-serif" font-size="46" font-weight="700" fill="#0E2A47" letter-spacing="2">ODOMETER CLOSE-UP</text>
  <text x="600" y="352" text-anchor="middle" font-family="Inter, -apple-system, Segoe UI, Roboto, sans-serif" font-size="26" font-weight="400" fill="#5B6B7C">Photo pending — media pipeline stub</text>
  <text x="600" y="800" text-anchor="middle" font-family="Inter, -apple-system, Segoe UI, Roboto, sans-serif" font-size="24" font-weight="500" fill="#5B6B7C">HONESTCARS · PORT HARCOURT</text>
</svg>
